<?xml version="1.0" standalone="no"?>
<!DOCTYPE svg PUBLIC "-//W3C//DTD SVG 20010904//EN"
 "http://www.w3.org/TR/2001/REC-SVG-20010904/DTD/svg10.dtd">
<svg version="1.0" xmlns="http://www.w3.org/2000/svg"
 width="500.000000pt" height="500.000000pt" viewBox="0 0 500.000000 500.000000"
 preserveAspectRatio="xMidYMid meet">

<g transform="translate(0.000000,500.000000) scale(0.100000,-0.100000)"
fill="#000000" stroke="none">
<path d="M2465 4493 c-686 -60 -1264 -454 -1564 -1067 -318 -648 -224 -1447
235 -2013 74 -90 224 -240 283 -282 31 -22 31 -22 31 -2 0 14 6 21 19 21 15 0
20 10 25 45 8 50 25 72 64 82 41 10 75 -15 86 -65 9 -37 13 -42 38 -42 25 0
28 3 28 35 0 22 -6 38 -15 41 -27 11 -17 34 15 34 30 0 30 -1 30 -55 l0 -55
45 0 45 0 0 -145 0 -145 58 -26 c235 -104 584 -160 856 -136 196 18 368 54
514 109 l42 16 0 83 c0 46 2 84 5 84 23 0 298 42 325 50 24 7 36 6 41 -2 9
-14 27 -3 130 80 106 85 263 252 339 359 176 249 284 513 336 818 24 138 24
442 0 580 -46 273 -138 516 -273 725 -234 360 -564 624 -958 766 -244 87 -540
128 -780 107z m843 -560 l2 -183 180 0 180 0 0 -605 c0 -333 -1 -608 -2 -612
-2 -5 -14 -7 -28 -7 -14 1 -96 5 -182 9 l-158 8 0 48 0 49 -735 0 c-693 0
-735 -1 -735 -17 0 -16 -11 -18 -93 -18 -50 1 -104 4 -120 9 -17 5 -38 4 -57
-4 -16 -7 -38 -9 -47 -5 -10 4 -27 8 -38 9 -20 1 -20 8 -20 566 l0 565 183 3
182 2 0 179 c0 98 3 181 7 184 3 4 338 6 742 5 l736 -3 3 -182z m-1687 -1372
c21 -17 24 -27 24 -94 0 -60 -4 -79 -19 -96 -21 -23 -65 -28 -96 -11 -46 24
-51 160 -7 200 26 25 68 26 98 1z m119 -96 c0 -96 -3 -115 -15 -115 -12 0 -15
17 -15 94 0 74 -3 95 -15 100 -28 10 -17 36 15 36 l30 0 0 -115z m1815 44 c78
-20 95 -63 42 -103 -41 -30 -173 -31 -214 0 -88 66 33 138 172 103z m55 -171
c-75 -61 -250 -37 -258 35 l-3 27 37 -22 c66 -39 230 -22 235 25 1 6 4 -1 6
-18 4 -22 -1 -34 -17 -47z m-203 -49 c13 -5 53 -9 87 -9 51 0 70 5 100 25 l37
25 -3 -26 c-5 -43 -48 -68 -127 -72 -95 -6 -150 23 -151 76 0 22 1 22 17 7 9
-9 27 -21 40 -26z m-1817 24 c1 -5 2 -56 3 -116 2 -96 0 -107 -15 -107 -16 0
-18 11 -18 91 0 74 -3 94 -17 104 -9 7 -13 17 -9 23 8 13 56 17 56 5z m100 -5
c0 -7 2 -59 3 -116 2 -91 0 -102 -15 -102 -16 0 -18 11 -18 91 0 74 -3 94 -17
104 -9 7 -13 17 -9 23 10 16 56 15 56 0z m1871 -134 c14 -7 32 -21 40 -30 12
-16 12 -17 -1 -9 -8 5 -24 9 -35 7 l-20 -2 20 9 c18 9 17 10 -7 10 -15 1 -30
6 -33 11 -3 6 -20 10 -37 10 -23 0 -29 -4 -24 -15 3 -8 0 -15 -7 -15 -7 0 -13
9 -14 21 -2 18 3 20 45 18 26 -1 59 -8 73 -15z m-150 -17 c-6 -8 -7 -18 -3
-22 4 -5 2 -5 -5 -2 -6 4 -14 1 -16 -5 -4 -9 -6 -9 -6 -1 -1 6 6 19 15 27 19
19 31 21 15 3z m99 -4 c0 -15 -2 -16 -10 -3 -8 12 -10 12 -10 1 0 -8 -3 -12
-6 -8 -8 7 4 27 17 27 5 0 9 -8 9 -17z m-70 -33 c-6 -11 -13 -20 -16 -20 -2 0
0 9 6 20 6 11 13 20 16 20 2 0 0 -9 -6 -20z m47 -12 c-3 -8 -6 -5 -6 6 -1 11
2 17 5 13 3 -3 4 -12 1 -19z m146 -20 c6 -22 5 -22 -8 -4 -17 22 -20 40 -6 32
5 -3 11 -16 14 -28z m-233 12 c8 -5 11 -10 5 -10 -5 0 -17 5 -25 10 -8 5 -10
10 -5 10 6 0 17 -5 25 -10z m200 -4 c0 -2 -9 -6 -20 -9 -11 -3 -18 -1 -14 4 5
9 34 13 34 5z m-223 -28 c-3 -8 -6 -5 -6 6 -1 11 2 17 5 13 3 -3 4 -12 1 -19z
m141 15 c-15 -2 -42 -2 -60 0 -18 2 -6 4 27 4 33 0 48 -2 33 -4z m-161 -25
c-3 -8 -6 -5 -6 6 -1 11 2 17 5 13 3 -3 4 -12 1 -19z m133 -7 c0 -15 -5 -18
-22 -13 -19 5 -20 7 -5 10 9 2 17 8 17 13 0 5 2 9 5 9 3 0 5 -9 5 -19z m17
-13 c-3 -7 -5 -2 -5 12 0 14 2 19 5 13 2 -7 2 -19 0 -25z m-1932 -3 c21 -20
25 -34 25 -85 0 -89 -19 -120 -76 -120 -43 0 -64 19 -75 68 -26 116 57 207
126 137z m194 6 c37 -37 40 -136 6 -187 -20 -31 -83 -34 -110 -4 -20 22 -31
103 -21 145 15 60 85 86 125 46z m1806 0 c-3 -6 -11 -11 -16 -11 -5 0 -4 6 3
14 14 16 24 13 13 -3z m-201 -15 c-8 -20 -24 -21 -24 0 0 8 5 12 10 9 6 -3 10
-1 10 6 0 7 2 10 5 7 3 -3 3 -13 -1 -22z m116 -21 c0 -9 -9 -15 -22 -14 -17 1
-19 2 -5 6 9 2 17 9 17 14 0 5 2 9 5 9 3 0 5 -7 5 -15z m35 -7 c6 -4 2 -8 -7
-8 -10 0 -18 7 -18 17 0 9 3 12 8 7 4 -5 12 -12 17 -16z m100 2 c3 -5 -1 -10
-10 -10 -9 0 -13 5 -10 10 3 6 8 10 10 10 2 0 7 -4 10 -10z m-217 -50 c7 0 11
4 7 9 -3 5 -2 12 3 15 4 2 8 -4 9 -14 2 -30 -24 -31 -47 -3 -11 14 -20 31 -20
37 0 6 8 -1 18 -16 9 -16 23 -28 30 -28z m108 21 c-3 -5 -15 -7 -26 -4 -28 7
-25 13 6 13 14 0 23 -4 20 -9z m94 -12 c0 -15 -18 -19 -23 -6 -3 8 1 14 9 14
8 0 14 -4 14 -8z m-105 -19 c-3 -5 -10 -10 -16 -10 -5 0 -9 5 -9 10 0 6 7 10
16 10 8 0 12 -4 9 -10z m-40 -28 c-2 -2 -13 -1 -26 3 -16 5 -18 9 -9 15 11 7
43 -10 35 -18z m79 6 c-3 -4 -12 -8 -20 -8 -8 0 -13 4 -10 8 3 5 12 9 20 9 8
0 13 -4 10 -9z m33 -178 c43 -85 62 -135 60 -155 l-2 -30 -145 0 -145 0 -3 25
c-1 14 4 36 13 50 8 14 23 45 35 70 11 25 24 52 30 60 5 8 19 37 31 63 35 77
52 65 126 -83z m-2029 -57 c3 -108 2 -113 -18 -113 -19 0 -20 6 -20 101 0 59
-4 98 -9 94 -5 -3 -12 -1 -16 5 -11 17 6 31 33 28 l27 -3 3 -112z m173 98 c21
-17 24 -27 24 -94 0 -89 -17 -117 -72 -117 -41 0 -70 27 -79 75 -21 113 55
194 127 136z m-126 -358 c0 -101 -2 -113 -17 -113 -16 0 -18 11 -18 100 0 82
-3 100 -15 100 -8 0 -15 4 -15 8 0 16 14 23 40 20 l25 -3 0 -112z m99 0 c1
-101 -1 -113 -16 -113 -16 0 -18 11 -18 101 0 59 -4 98 -9 94 -5 -3 -12 -1
-16 5 -11 17 6 31 33 28 l26 -3 0 -112z m1976 -133 l0 -130 -75 0 c-58 0 -75
-3 -75 -14 0 -8 10 -17 23 -19 12 -2 -9 -4 -48 -4 -38 0 -60 2 -47 4 12 2 22
11 22 18 0 11 -19 15 -77 17 l-78 3 -3 114 c-1 63 0 121 2 128 4 10 45 13 181
13 l175 0 0 -130z"/>
<path d="M1830 3380 l0 -370 735 0 735 0 0 370 0 370 -735 0 -735 0 0 -370z
m380 110 c0 -11 -7 -20 -15 -20 -11 0 -15 -12 -15 -52 l1 -53 44 50 c31 35 40
51 30 53 -8 2 -15 12 -15 23 0 17 7 19 60 19 53 0 60 -2 60 -20 0 -11 -6 -20
-13 -20 -7 0 -30 -22 -51 -50 l-38 -50 43 -70 c24 -38 49 -70 56 -70 7 0 13
-9 13 -20 0 -18 -7 -20 -65 -20 -58 0 -65 2 -65 20 0 11 5 20 10 20 15 0 12
15 -11 55 -20 34 -22 35 -40 19 -20 -18 -26 -74 -9 -74 6 0 10 -9 10 -20 0
-18 -7 -20 -60 -20 -53 0 -60 2 -60 20 0 11 7 20 15 20 13 0 15 20 15 120 0
73 -4 120 -10 120 -5 0 -10 9 -10 20 0 18 7 20 60 20 53 0 60 -2 60 -20z m300
0 c0 -11 -7 -20 -15 -20 -12 0 -15 -20 -15 -120 0 -98 3 -120 14 -120 9 0 14
-9 13 -20 -1 -18 -8 -20 -64 -20 -56 0 -63 2 -63 20 0 11 7 20 15 20 13 0 15
20 15 120 0 73 -4 120 -10 120 -5 0 -10 9 -10 20 0 18 7 20 60 20 53 0 60 -2
60 -20z m242 0 c44 -34 41 -117 -4 -141 -18 -10 -18 -12 -4 -28 8 -9 22 -34
31 -54 13 -33 20 -38 43 -35 25 3 30 13 69 118 32 90 38 116 27 118 -8 2 -14
12 -14 23 0 17 7 19 58 19 l57 0 49 -140 c31 -89 53 -140 62 -140 8 0 14 -9
14 -20 0 -18 -7 -20 -65 -20 -58 0 -65 2 -65 20 0 12 7 20 16 20 9 0 14 7 12
18 -2 13 -15 18 -57 20 -37 2 -57 -1 -62 -10 -13 -19 -11 -28 6 -28 8 0 15 -9
15 -20 0 -19 -7 -20 -125 -20 -118 0 -125 1 -125 20 0 11 7 20 15 20 19 0 19
2 -2 45 -14 30 -22 35 -50 35 -31 0 -33 -2 -33 -36 0 -27 5 -37 20 -41 11 -3
20 -14 20 -24 0 -17 -8 -19 -65 -19 -57 0 -65 2 -65 19 0 10 7 21 15 25 12 4
15 27 15 121 0 96 -3 115 -15 115 -8 0 -15 9 -15 20 0 19 7 20 99 20 83 0 102
-3 123 -20z"/>
<path d="M2620 3415 l0 -45 38 0 c43 0 62 14 62 45 0 31 -19 45 -62 45 l-38 0
0 -45z"/>
<path d="M2957 3390 c-10 -33 -17 -62 -17 -65 0 -3 18 -5 39 -5 l39 0 -19 62
c-11 34 -21 63 -23 65 -1 2 -10 -24 -19 -57z"/>
<path d="M1540 2535 c-7 -9 -13 -40 -13 -70 0 -61 14 -85 49 -85 29 0 44 31
44 88 0 66 -48 105 -80 67z"/>
<path d="M1496 2014 c-19 -19 -22 -124 -4 -142 18 -18 56 -14 68 7 27 52 5
151 -35 151 -7 0 -21 -7 -29 -16z"/>
<path d="M1686 2008 c-18 -26 -21 -84 -6 -123 13 -35 58 -32 78 5 14 28 9 105
-9 126 -17 21 -46 17 -63 -8z"/>
<path d="M3472 1768 c-13 -13 -16 -51 -4 -62 4 -4 12 -22 18 -39 l11 -32 13
57 c7 31 10 63 7 72 -8 19 -28 21 -45 4z"/>
<path d="M3486 1611 c-4 -5 -2 -12 3 -15 5 -4 12 -2 15 3 4 5 2 12 -3 15 -5 4
-12 2 -15 -3z"/>
<path d="M1640 1755 c-7 -9 -13 -40 -13 -70 0 -61 14 -85 49 -85 29 0 44 31
44 88 0 66 -48 105 -80 67z"/>
<path d="M3330 1305 l0 -105 165 0 165 0 0 105 0 105 -165 0 -165 0 0 -105z"/>
<path d="M1543 1238 c-6 -7 -13 -28 -16 -45 l-6 -33 45 0 c52 0 66 18 43 59
-16 29 -50 39 -66 19z"/>
</g>
</svg>
